<svg width="381" height="79" viewBox="0 0 381 79" fill="none" xmlns="http://www.w3.org/2000/svg">
<path d="M364.983 12.2839H341.796L325.736 65.261H341.036L344.552 52.603H361.562V52.697L365.172 65.355H380.853L364.983 12.2839ZM347.118 43.976L353.105 22.5981L359.092 43.976H347.118Z" fill="black"/>
<path d="M149.465 12.3773H101.856V25.4105H123.902L99.766 65.354H149.751V52.321H127.228L149.465 12.3773Z" fill="black"/>
<path d="M315.952 43.414C318.327 42.101 320.322 40.2261 321.653 37.7882C323.078 35.0692 323.838 32.0686 323.743 28.9744C323.649 25.8802 322.794 22.9734 321.272 20.2543C319.562 17.6289 317.091 15.566 314.241 14.2534C311.2 12.8469 307.588 12.0968 303.502 12.0968H273.379V65.355H288.679V42.195L304.073 65.543H321.843L307.969 45.477L308.824 45.383C311.295 45.289 313.765 44.633 315.952 43.414ZM306.163 35.6316C304.927 36.8506 303.313 37.6007 301.507 37.6007H288.679V24.5675H301.507C303.218 24.5675 304.927 25.2238 306.163 26.4428C307.399 27.6617 308.064 29.3495 308.064 31.0373C308.064 32.7251 307.399 34.4128 306.163 35.6316Z" fill="black"/>
<path d="M238.408 10.6895C221.968 10.6895 209.044 23.0664 209.044 38.8188C209.044 54.571 221.968 66.948 238.408 66.948C254.847 66.948 267.676 54.571 267.676 38.8188C267.771 23.0665 254.847 10.6895 238.408 10.6895ZM248.67 49.039C245.915 51.571 242.209 53.071 238.408 53.071C235.557 53.071 232.801 52.227 230.425 50.727C228.05 49.133 226.244 46.976 225.103 44.351C223.964 41.7255 223.678 38.9126 224.248 36.1934C224.819 33.4743 226.149 30.9426 228.145 28.8798C230.14 26.9107 232.707 25.5043 235.557 25.0354C238.313 24.4728 241.258 24.7541 243.919 25.8793C246.58 26.9107 248.765 28.786 250.382 31.1301C251.997 33.4743 252.851 36.1934 252.851 39.0064C252.851 42.757 251.331 46.32 248.67 49.039Z" fill="black"/>
<path d="M188.042 45.101C188.042 47.258 187.187 49.414 185.572 50.915C183.956 52.509 181.865 53.353 179.68 53.353C177.495 53.353 175.309 52.509 173.788 50.915C172.268 49.321 171.318 47.258 171.318 45.101V12.3773H155.923V43.601C155.923 49.789 158.394 55.697 162.859 60.103C167.326 64.51 173.313 66.948 179.68 66.948C185.951 66.948 192.033 64.51 196.5 60.103C200.965 55.697 203.436 49.789 203.436 43.601V12.3773H188.042V45.101Z" fill="black"/>
<path d="M65.936 78.2H18.6127C16.142 78.2 14.0514 76.7 13.1961 74.449C12.3409 72.199 13.1011 69.667 15.0017 68.167L25.5497 59.634H5.7841C3.3134 59.634 1.2228 58.134 0.367398 55.884C-0.487902 53.633 0.177396 51.196 2.0779 49.602L22.5088 32.8177C24.2192 31.4112 26.6901 31.6925 28.1155 33.2865C29.5409 34.9743 29.2557 37.4122 27.6403 38.8186L11.8658 51.852H35.3375L67.267 26.1604H13.2912C9.77509 26.1604 6.4491 24.7539 3.8834 22.316C1.4127 19.8781 0.0821956 16.5964 0.0821956 13.1272C0.0821956 9.658 1.4127 6.3761 3.9785 3.8444C6.4491 1.4066 9.77509 0 13.2912 0H59.284C61.755 0 63.846 1.5003 64.701 3.7505C65.556 6.001 64.796 8.4387 62.895 10.0328L52.632 18.3778H73.349C75.819 18.3778 77.91 19.878 78.765 22.1284C79.62 24.3788 78.86 26.9104 76.96 28.4107L47.786 51.852H65.936C69.452 51.852 72.778 53.258 75.249 55.696C77.72 58.134 79.145 61.416 79.145 64.979V65.166C79.145 68.636 77.815 71.917 75.249 74.449C72.778 76.887 69.452 78.2 65.936 78.2ZM24.7895 70.417H65.936C67.362 70.417 68.692 69.855 69.738 68.917C70.783 67.886 71.258 66.573 71.258 65.167V64.979C71.258 63.573 70.688 62.26 69.738 61.228C68.692 60.197 67.362 59.728 65.936 59.728H38.0933L24.7895 70.417ZM13.2912 7.7825C11.8658 7.7825 10.5353 8.3452 9.49009 9.2828C8.44479 10.3143 7.9697 11.6269 7.9697 13.0334C7.9697 14.4398 8.53979 15.7526 9.49009 16.7839C10.5353 17.8154 11.8658 18.2842 13.2912 18.2842H40.184L53.203 7.7825H13.2912Z" fill="#00D2B9"/>
<path d="M375.603 16.6704H374.746C374.662 16.5864 374.629 16.4352 374.595 16.0824C374.578 15.7128 374.427 15.5952 374.091 15.5952H373.57V16.6704H372.747V13.4448H374.31C375.133 13.4448 375.553 13.8312 375.553 14.4528C375.553 14.9232 375.25 15.2256 374.847 15.2928C375.2 15.36 375.402 15.5448 375.435 15.9312C375.469 16.4016 375.486 16.5528 375.603 16.6704ZM373.57 14.9568H374.108C374.494 14.9568 374.696 14.8392 374.696 14.5368C374.696 14.2512 374.494 14.1168 374.108 14.1168H373.57V14.9568ZM377.098 15.0744C377.098 16.8552 375.721 18.1488 374.041 18.1488C372.378 18.1488 371 16.8552 371 15.0744C371 13.2936 372.378 12 374.041 12C375.721 12 377.098 13.2936 377.098 15.0744ZM376.544 15.0744C376.544 13.5792 375.435 12.5208 374.041 12.5208C372.663 12.5208 371.554 13.5792 371.554 15.0744C371.554 16.5528 372.663 17.628 374.041 17.628C375.435 17.628 376.544 16.5528 376.544 15.0744Z" fill="black"/>
</svg>
